<?xml version="1.0" encoding="UTF-8" standalone="no"?>
<!-- Created with Inkscape (http://www.inkscape.org/) -->

<svg
   xmlns:dc="http://purl.org/dc/elements/1.1/"
   xmlns:cc="http://creativecommons.org/ns#"
   xmlns:rdf="http://www.w3.org/1999/02/22-rdf-syntax-ns#"
   xmlns:svg="http://www.w3.org/2000/svg"
   xmlns="http://www.w3.org/2000/svg"
   xmlns:sodipodi="http://sodipodi.sourceforge.net/DTD/sodipodi-0.dtd"
   xmlns:inkscape="http://www.inkscape.org/namespaces/inkscape"
   width="297.81326"
   height="69.70462"
   id="svg3341"
   version="1.1"
   inkscape:version="0.48.0 r9654"
   sodipodi:docname="grupobancolombia.svg">
  <defs
     id="defs3343">
 <clipPath
   id="id3">
      <path
   id="path4947"
   d="m 2939,15514 15712,0 0,-3087 -15712,0 0,3087 z"
   inkscape:connector-curvature="0" />

     </clipPath>

     <clipPath
   id="id2">
      <path
   id="path4944"
   d="m 18651,12427 -15712,0 0,3086 15712,0 0,-3086 z"
   inkscape:connector-curvature="0" />

     </clipPath>

     <clipPath
   id="id1">
     <path
   id="path4941"
   d="m 2939,15514 15712,0 0,-3087 -15712,0 0,3087 z"
   inkscape:connector-curvature="0" />

    </clipPath>

    <clipPath
   id="id0">
     <path
   id="path4938"
   d="m 2939,15514 15712,0 0,-3087 -15712,0 0,3087 z"
   inkscape:connector-curvature="0" />

    </clipPath>

    <style
   id="style4935"
   type="text/css">
   
    .fil5 {fill:none}
    .fil3 {fill:#003A7E}
    .fil2 {fill:#EA241D}
    .fil1 {fill:#FFC902}
    .fil0 {fill:white}
    .fil4 {fill:black;fill-opacity:0.000000}
   
  </style>

  </defs>
  <sodipodi:namedview
     id="base"
     pagecolor="#ffffff"
     bordercolor="#666666"
     borderopacity="1.0"
     inkscape:pageopacity="0.0"
     inkscape:pageshadow="2"
     inkscape:zoom="1.4"
     inkscape:cx="100.64443"
     inkscape:cy="-6.6990418"
     inkscape:document-units="px"
     inkscape:current-layer="layer1"
     showgrid="false"
     inkscape:window-width="1285"
     inkscape:window-height="746"
     inkscape:window-x="-8"
     inkscape:window-y="-8"
     inkscape:window-maximized="1"
     showguides="true"
     inkscape:guide-bbox="true"
     showborder="false"
     inkscape:showpageshadow="false"
     fit-margin-top="0"
     fit-margin-left="0"
     fit-margin-right="0"
     fit-margin-bottom="0" />
  <metadata
     id="metadata3346">
    <rdf:RDF>
      <cc:Work
         rdf:about="">
        <dc:format>image/svg+xml</dc:format>
        <dc:type
           rdf:resource="http://purl.org/dc/dcmitype/StillImage" />
        <dc:title></dc:title>
      </cc:Work>
    </rdf:RDF>
  </metadata>
  <g
     inkscape:label="Layer 1"
     inkscape:groupmode="layer"
     id="layer1"
     transform="translate(-242.07274,-158.18766)">
    <path
       inkscape:connector-curvature="0"
       style="fill:#222f7d;fill-opacity:1;fill-rule:evenodd"
       class="fil1"
       d="m 306.81009,183.80668 c -2.3049,0 -2.29223,-0.0253 -2.26057,-1.98878 0.019,-1.30691 -0.057,-2.73378 0.0633,-4.02175 0.18363,-1.93196 1.80465,-4.36269 3.94491,-3.88285 3.36237,0.75763 3.33071,9.89338 -1.74766,9.89338 z m -3.15974,-11.50335 c -0.1583,-2.49386 0.98782,-2.36128 -4.29952,-2.29183 -0.29127,1.36374 -0.0253,18.01896 -0.038,22.15436 -0.006,2.61382 -0.8865,2.29183 4.14755,2.29183 1.2221,0 0.82317,-0.43564 0.82317,-3.624 0,-1.53419 -0.057,-3.1631 0.0253,-4.68467 1.23476,0.43563 1.38674,1.58471 4.01457,1.56577 8.36475,-0.0505 9.20692,-13.90251 3.36236,-17.28659 -4.3755,-2.53174 -7.76319,1.76149 -8.03547,1.87513 z"
       id="path5503" />
    <path
       inkscape:connector-curvature="0"
       style="fill:#222f7d;fill-opacity:1;fill-rule:evenodd"
       class="fil3"
       d="m 248.3075,221.99079 0,-9.22627 c 4.38332,-0.69311 9.9246,0.22887 9.46664,4.84527 -0.22898,4.381 -5.07679,5.07413 -9.46664,4.381 z m 0.22898,-22.61124 c 3.92536,-0.6931 9.00215,-0.46425 8.77316,4.15216 -0.22898,3.9233 -4.8478,4.84527 -9.00214,4.15215 l 0.22898,-8.30431 z m 10.61808,10.15479 c 5.99924,-2.76592 6.23476,-10.61251 1.84492,-13.61382 -4.38332,-3.00132 -13.15647,-2.07935 -18.92674,-1.84394 l 0,33.22374 c 7.38619,0 15.2369,1.15083 19.85573,-3.23017 3.0029,-3.00133 3.92535,-8.76856 0.69348,-12.45646 -0.92245,-0.69312 -1.61593,-1.15083 -2.53839,-1.6151 l -0.92246,-0.46425 z"
       id="path3396" />
    <path
       inkscape:connector-curvature="0"
       style="fill:#222f7d;fill-opacity:1;fill-rule:evenodd"
       class="fil3"
       d="m 280.62619,215.99454 c 0,2.53708 -0.92245,4.38102 -2.08043,5.53838 -1.38696,0.92198 -3.92536,1.84395 -5.54129,0.46427 -1.61594,-1.84395 -0.22899,-4.15215 1.38696,-4.84527 1.61594,-0.92197 4.15433,-1.15083 6.23476,-1.15083 z m -12.46298,-7.84658 c 1.15143,0 3.69637,-1.84395 7.61518,-1.84395 4.61882,0 4.8478,2.3082 4.8478,5.30953 l -0.69348,0 c -17.08183,0 -17.08183,15.68663 -7.15723,16.15088 2.08045,0.22886 3.69639,-0.22885 5.31233,-1.15082 1.8449,-1.15084 2.08043,-1.38623 3.23187,-3.23018 l -0.22899,3.92328 6.23476,0 -0.22897,-16.844 c 0,-6.92461 -3.23187,-9.46166 -10.16013,-9.46166 l -0.22896,0 c -3.00291,0 -6.23478,0.6931 -9.00215,1.61507 l 0.4645,5.53838 z"
       id="path3406" />
    <path
       inkscape:connector-curvature="0"
       style="fill:#222f7d;fill-opacity:1;fill-rule:evenodd"
       class="fil3"
       d="m 297.47903,227.30029 c 0,-6.92463 -1.61593,-18.68796 4.38331,-20.53191 5.31231,-1.38623 4.3833,4.61641 4.3833,8.07545 0,4.15216 0,8.30431 0,12.45646 l 6.46376,0 c 0,-4.61642 0.69347,-19.38108 -0.92246,-22.61126 -1.15144,-2.53705 -3.92536,-4.15215 -7.8507,-3.45903 -5.07679,0.69311 -5.99924,3.69443 -7.15723,4.61641 l 0,-4.15215 c -2.30942,0 -3.92535,0.46425 -5.99924,1.15082 l 0,24.45521 6.69273,0 z"
       id="path3410" />
    <path
       inkscape:connector-curvature="0"
       style="fill:#222f7d;fill-opacity:1;fill-rule:evenodd"
       class="fil3"
       d="m 333.25871,201.91649 c -5.07679,-0.92195 -9.46664,-1.15082 -13.15646,1.6151 -6.69273,5.07412 -6.92825,18.68796 -0.22899,22.84011 4.38331,2.53705 9.00215,1.38622 13.39199,0.22885 l -0.4645,-5.30953 c -0.4645,-0.22885 -0.92245,0 -1.84491,0.22887 -1.84491,0.69311 -4.61884,0.69311 -6.23477,-0.22887 -3.69637,-2.3082 -3.69637,-11.30561 0.22898,-13.61381 3.00289,-2.07935 5.31231,-0.22887 7.61518,0 l 0.69348,-5.76725 z"
       id="path3412" />
    <path
       inkscape:connector-curvature="0"
       style="fill:#222f7d;fill-opacity:1;fill-rule:evenodd"
       class="fil3"
       d="m 341.79633,216.45226 c -1.61594,-11.30561 9.69561,-12.9207 10.84704,-3.92328 0.4645,4.15215 -0.69348,8.07543 -3.92535,9.46166 -3.46086,1.15085 -6.46374,-0.92196 -6.92824,-5.53838 z m 17.31079,0.22887 c 0.69348,-3.69443 0.22898,-8.07545 -1.61594,-10.84137 -1.61593,-2.3082 -4.15432,-4.15215 -8.07968,-4.61641 -7.85071,-0.92197 -13.39198,4.15215 -14.31445,11.07676 -1.38695,8.3043 2.08044,14.76468 9.69563,15.45778 8.30864,0.69312 13.15647,-4.15215 14.31444,-11.07676 z"
       id="path3404" />
    <path
       inkscape:connector-curvature="0"
       style="fill:#222f7d;fill-opacity:1;fill-rule:evenodd"
       class="fil3"
       d="m 362.10999,227.30029 6.46374,0 -0.22898,-35.76082 c -1.84491,-0.22887 -4.84781,0.69311 -6.23476,1.38623 l 0,34.37459 z"
       id="path3414" />
    <path
       inkscape:connector-curvature="0"
       style="fill:#222f7d;fill-opacity:1;fill-rule:evenodd"
       class="fil3"
       d="m 382.65926,206.99072 c 8.30867,-2.07935 8.54418,13.84268 1.84492,15.00006 -4.38332,0.92197 -6.23477,-2.53706 -6.46374,-6.46036 -0.4645,-4.15215 0.92245,-7.84658 4.61882,-8.5397 z m 13.15648,8.99742 c 0.92243,-8.3043 -2.76738,-14.30693 -10.61809,-14.76465 -7.85069,-0.69313 -13.15647,4.6164 -13.84993,11.76986 -0.4645,3.9233 0.22896,8.07545 2.08043,10.84138 4.38331,6.2315 20.54265,6.46035 22.39412,-7.84659 z"
       id="path3402" />
    <path
       inkscape:connector-curvature="0"
       style="fill:#222f7d;fill-opacity:1;fill-rule:evenodd"
       class="fil3"
       d="m 404.81772,201.68769 c -2.3094,0 -4.38331,0.69312 -6.23474,1.38623 l 0,24.22633 c 1.8449,0 5.07677,0.22887 6.69271,0 -0.22897,-4.15215 -0.22897,-8.5397 0,-12.45645 0,-3.69443 1.61593,-7.15346 4.3833,-8.07543 5.07681,-1.38623 4.15434,4.84525 4.15434,8.3043 0,4.15215 0,8.07543 0,12.22758 l 6.46374,0 0,-12.45645 c 0,-2.76592 1.15144,-5.30951 2.53841,-6.92461 1.8449,-1.61508 5.3123,-2.07935 5.99924,0.92198 0.4645,3.00132 0.22896,14.76465 0,18.45908 1.61593,0.22887 5.07677,0.22887 6.69271,0 0,-4.84525 0.6935,-19.15221 -0.92244,-22.61123 -1.15143,-2.53706 -3.92537,-4.15216 -7.85071,-3.45903 -3.69637,0.46425 -5.07677,2.07933 -6.92824,4.6164 0,0 0,0 0,-0.22887 l -0.4645,-0.22885 c -1.38697,-2.76592 -2.76737,-4.6164 -7.15724,-4.38102 -4.38331,0.22887 -5.77025,2.76592 -7.61518,4.84528 l 0.229,-4.15216 z"
       id="path3394" />
    <path
       inkscape:connector-curvature="0"
       style="fill:#222f7d;fill-opacity:1;fill-rule:evenodd"
       class="fil3"
       d="m 445.21614,222.45493 c -0.4645,-2.53707 0,-8.99742 0.69347,-11.30563 1.61593,-3.9233 5.54127,-4.381 7.15724,-2.07935 1.8449,2.30821 3.46084,16.15089 -7.85071,13.38498 z m -0.229,-16.37975 c 0.229,-4.38101 0.6935,-10.38366 0.229,-14.76466 -2.08044,0.22885 -4.84781,0.6931 -6.46374,1.61508 l 0,33.68801 c 3.23187,1.61509 11.54051,1.61509 14.77238,0 3.92538,-1.61509 6.46375,-4.6164 7.15725,-9.91939 0.69347,-5.30951 -0.4645,-10.61251 -3.69637,-12.92071 -1.84494,-1.15083 -4.38331,-1.84395 -6.92825,-1.15083 -1.15143,0.22885 -2.30943,0.69311 -3.0029,1.38623 -1.38697,0.69312 -1.15144,1.15083 -2.08044,2.07935 z"
       id="path3398" />
    <path
       inkscape:connector-curvature="0"
       style="fill:#222f7d;fill-opacity:1;fill-rule:evenodd"
       class="fil3"
       d="m 463.45607,227.30029 6.92824,0 0,-24.91946 0,-0.92197 c -2.76737,0 -4.38331,0 -6.92824,0.22886 l 0,0.92198 0,24.68404 z"
       id="path3416" />
    <path
       inkscape:connector-curvature="0"
       style="fill:#222f7d;fill-opacity:1;fill-rule:evenodd"
       class="fil3"
       d="m 463.22056,195.4561 c 0.46451,1.84395 2.53837,3.45903 4.84781,2.76593 2.08044,-0.46426 3.46084,-2.30821 3.00287,-4.84528 -1.15143,-4.84525 -9.23111,-3.45903 -7.85068,2.07935 z"
       id="path3428" />
    <path
       inkscape:connector-curvature="0"
       style="fill:#222f7d;fill-opacity:1;fill-rule:evenodd"
       class="fil1"
       d="m 267.15826,186.31943 0.057,-11.74957 c -0.6902,-0.006 -4.45149,-0.20835 -4.76176,0.0631 l -0.038,8.39075 -2.17192,0.23991 c -7.63022,0.68819 -10.0111,-12.28622 -2.48853,-15.10839 1.29809,-0.48615 2.43787,-0.39776 4.00191,-0.3725 1.92497,0.0316 2.40621,0.58085 3.65998,0.81445 l 1.08912,-4.29955 c -1.34874,-0.75132 -5.19868,-1.23746 -6.92735,-1.07962 -7.22496,0.64398 -11.43583,4.98141 -11.32818,12.91127 0.0696,5.13294 2.30489,8.66223 5.78123,10.3669 1.70335,0.83971 4.22353,1.43318 6.6994,1.26272 1.62102,-0.11365 5.17968,-0.79551 6.42711,-1.44581 z"
       id="path5501" />
    <path
       inkscape:connector-curvature="0"
       style="fill:#222f7d;fill-opacity:1;fill-rule:evenodd"
       class="fil1"
       d="m 274.53506,173.0735 -0.41159,-2.87899 -3.91958,-0.1389 0.0253,17.31815 4.88208,-0.0316 c 0.32927,-7.2038 -1.46906,-12.5956 3.56498,-12.56403 l 1.13979,0.0126 -0.0253,-5.08875 c -4.57179,-0.3725 -4.58446,3.04946 -5.24933,3.37776 z"
       id="path5509" />
    <path
       inkscape:connector-curvature="0"
       style="fill:#222f7d;fill-opacity:1;fill-rule:evenodd"
       class="fil1"
       d="m 286.1419,170.01769 c -5.45196,-0.26517 -4.7301,-0.82077 -4.7301,3.93967 0,4.58997 -1.13345,12.38725 4.05257,13.59946 3.36869,0.78919 4.91373,-0.90285 6.37645,-2.42442 0.57623,2.85374 -0.19629,2.48755 4.43249,2.30446 L 296.172,170.01769 c -0.89283,-0.0568 -4.24253,-0.23361 -4.69844,0.17046 -1.30442,1.55946 2.03894,13.35954 -2.75448,13.29009 -4.19187,-0.0631 -1.74133,-10.07016 -2.58351,-13.46687 z"
       id="path5505" />
    <path
       inkscape:connector-curvature="0"
       style="fill:#222f7d;fill-opacity:1;fill-rule:evenodd"
       class="fil1"
       d="m 327.95941,180.8076 c -0.37359,1.05436 -0.44325,1.9067 -1.39306,2.65801 -0.93716,0.745 -2.52019,0.53666 -3.25472,-0.2336 -1.36141,-1.43318 -1.74134,-4.52684 -1.09546,-6.75553 0.59522,-2.07085 2.35555,-4.12277 4.44516,-2.26026 1.21576,1.07962 1.96295,4.70993 1.29808,6.59769 z m -4.60346,-10.9225 c -4.58446,1.16801 -7.00967,4.91197 -6.3068,10.56262 0.60789,4.91197 4.22986,7.87935 9.72616,7.08384 4.86941,-0.70712 6.70572,-5.22765 6.36379,-10.57525 -0.29128,-4.47633 -4.67945,-8.37181 -9.78315,-7.07121 z"
       id="path5507" />
    <path
       inkscape:connector-curvature="0"
       style="fill:#222f7d;fill-opacity:1;fill-rule:evenodd"
       class="fil3"
       d="m 487.23067,215.9944 c 0,2.76598 -0.69348,4.15223 -2.08046,5.53849 -4.38336,3.92337 -9.23122,-2.07938 -4.15438,-4.38109 1.38698,-0.922 4.15438,-1.38626 6.23484,-1.15086 z m -12.46313,-7.84674 c 1.61596,-0.22886 4.15438,-2.07938 8.07977,-1.84398 3.69642,0.22886 4.38336,1.61512 4.38336,5.30963 -4.61888,0.46426 -6.6928,0.22886 -10.38921,2.30824 -2.30944,1.38626 -4.61888,4.3811 -4.15438,8.53987 0.69349,3.45911 3.46089,5.53849 7.38629,5.30963 3.69641,0 7.38628,-2.53711 7.85079,-4.3811 l -0.22898,3.92337 6.23483,0 c 0,-3.92337 0,-7.84674 -0.22898,-11.77011 0,-7.38247 1.38698,-13.84295 -9.23122,-14.53608 -4.15438,0 -6.46382,0.69313 -10.16023,1.61512 l 0.4645,5.53849 z"
       id="path3408" />
    <path
       inkscape:connector-curvature="0"
       style="fill:#ea241d;fill-rule:evenodd"
       class="fil2"
       d="m 499.46482,194.07582 c 0.46451,1.38626 1.61596,4.6165 2.30944,5.99622 2.08046,5.99621 1.61596,9.22645 7.8508,6.92474 l 23.31684,-8.99759 c 7.85079,-3.00138 7.85079,-2.07939 5.77034,-8.30447 -2.53842,-7.61133 -2.08046,-7.15361 -9.00224,-5.76735 -2.08046,0.46427 -4.38335,0.92199 -6.6928,1.38626 -5.99931,1.38625 -13.39214,3.23024 -19.39146,4.84536 -2.08046,0.46427 -4.84786,0.92199 -4.15437,3.92337 z"
       id="path3392" />
    <path
       inkscape:connector-curvature="0"
       style="fill:#ffc902;fill-rule:evenodd"
       class="fil1"
       d="m 530.62594,169.61355 c -11.54068,0 -26.08427,2.76598 -36.70246,5.53849 -2.53842,0.92199 -5.31237,1.61512 -8.07977,2.53712 -8.77326,3.00137 -8.30875,2.53711 -5.77033,12.22783 0.92247,3.69451 1.38697,4.84536 5.77033,3.23024 10.16023,-3.92337 21.70089,-6.68934 33.01258,-9.22646 22.62335,-5.07422 21.7009,-1.38625 18.46898,-9.46186 -1.61595,-4.38109 -0.92246,-4.84536 -6.6928,-4.84536 z"
       id="path3390" />
    <path
       inkscape:connector-curvature="0"
       style="fill:#222f7d;fill-opacity:1;fill-rule:evenodd"
       class="fil3"
       d="m 514.00841,158.30782 c -7.8508,0.69313 -19.16248,2.07939 -26.08426,4.6165 -2.53842,1.15085 -1.38697,2.53711 -0.69349,5.07422 2.53843,7.61134 1.15145,5.30963 15.0081,2.30825 8.77327,-1.84398 18.00448,-3.00138 27.24225,-3.23024 4.15438,0 3.46089,-0.22886 2.08045,-3.6945 -0.92245,-1.61513 -1.38697,-3.92338 -3.00293,-4.6165 -2.30942,-0.92199 -11.54065,-0.46427 -14.54359,-0.46427 z"
       id="path3400" />
  </g>
</svg>
